<svg xmlns="http://www.w3.org/2000/svg" enable-background="new 0 0 64 64" viewBox="0 0 64 64"><path fill="#4e5292" d="M62.27,11.68l-2.85-2.86c-2.25-2.24-4.47-2.3-6.61-0.16L18.32,43.2l-4.6-4.6l4.1-4.1l1.23-1.24
		C21.01,31.3,27,25.3,32.69,26c0.76,0.09,1.55-0.18,2.07-0.72c0.73-0.73,0.81-1.79,0.22-2.66c-2.53-3.74-8.71-9.62-11.58-11.02
		c-0.84-0.43-1.88-0.28-2.51,0.36c-0.55,0.54-0.72,1.36-0.44,2.17c1.52,4.4-0.71,9.76-6.63,15.94L1.28,43.32
		c-0.86,0.87-1.32,2.05-1.28,3.3c0.05,1.24,0.56,2.41,1.45,3.31l5.53,5.53c0.97,0.96,2.22,1.45,3.46,1.45
		c1.15,0,2.28-0.43,3.14-1.29l21.39-21.4l1.9,1.9l-4.04,4.04c-0.28-0.06-0.58-0.01-0.81,0.19l-2.47,2.07
		c-0.21,0.17-0.34,0.43-0.35,0.7c-0.01,0.27,0.09,0.54,0.28,0.73l3.54,3.54c0.18,0.18,0.43,0.28,0.69,0.28h0.04
		c0.27-0.01,0.52-0.14,0.7-0.34l2.07-2.47c0.19-0.24,0.25-0.54,0.18-0.82l25.74-25.74C64.58,16.15,64.52,13.93,62.27,11.68z
		 M16.94,44.57l-2.17,2.18l-4.6-4.6l2.17-2.17L16.94,44.57z M13.4,48.12l-2.64,2.64l-4.6-4.6l2.65-2.63L13.4,48.12z M36.34,32.84
		l1.64-1.64l1.91,1.9l-1.64,1.65L36.34,32.84z M39.35,29.83l16.66-16.67l1.91,1.91L41.25,31.73L39.35,29.83z M33.63,45.26
		l-2.04-2.05l0.98-0.81l1.88,1.88L33.63,45.26z M61.07,16.92L35.45,42.53l-1.12-1.12l25.49-25.49c0.22-0.22,0.36-0.53,0.36-0.85
		s-0.14-0.63-0.36-0.84l-2.89-2.9c-0.16-0.16-0.37-0.34-0.66-0.42c-0.17-0.05-0.63-0.12-1.04,0.29L12.21,54.24
		c-1.02,1.02-2.74,0.94-3.85-0.17l-5.53-5.53C2.28,48,1.97,47.29,1.94,46.55c-0.02-0.72,0.23-1.38,0.74-1.88l12.55-13.26
		c6.46-6.74,8.83-12.77,7.06-17.91c-0.04-0.11-0.03-0.16-0.03-0.17c0.03-0.03,0.15-0.06,0.29,0.01c2.56,1.25,8.53,6.97,10.84,10.38
		c0.08,0.13,0.06,0.15,0.01,0.19c-0.11,0.11-0.31,0.18-0.48,0.16c-6.61-0.79-13.11,5.69-15.24,7.82L4.37,45.2
		c-0.03,0.03-0.07,0.08-0.1,0.11c-0.54,0.72-0.32,1.39,0.05,1.74l5.53,5.53c0.48,0.48,1.15,0.52,1.71,0.12
		c0.03-0.03,0.07-0.06,0.1-0.09l3.79-3.79c0-0.01,0.01-0.01,0.01-0.01c0.01,0,0.01-0.01,0.01-0.01l38.72-38.76
		c1.37-1.37,2.38-1.32,3.86,0.16l2.86,2.85C62.39,14.54,62.43,15.55,61.07,16.92z"/><polygon fill="#bec5da" points="34.46 44.29 33.63 45.26 31.6 43.22 32.58 42.41"/><path fill="#f0ca6c" d="M61.07,16.92L35.45,42.53l-1.12-1.12l25.49-25.49c0.22-0.22,0.36-0.53,0.36-0.85s-0.14-0.63-0.36-0.84
		l-2.89-2.9c-0.16-0.16-0.37-0.34-0.66-0.42c-0.17-0.05-0.63-0.12-1.04,0.29L12.21,54.24c-1.02,1.02-2.74,0.94-3.85-0.17l-5.53-5.53
		C2.28,48,1.97,47.29,1.94,46.55c-0.02-0.72,0.23-1.38,0.74-1.88l12.55-13.26c6.46-6.74,8.83-12.77,7.06-17.91
		c-0.04-0.11-0.03-0.16-0.03-0.17c0.03-0.03,0.15-0.06,0.29,0.01c2.56,1.25,8.53,6.97,10.84,10.38c0.08,0.13,0.06,0.15,0.01,0.19
		c-0.11,0.11-0.31,0.18-0.48,0.16c-6.61-0.79-13.11,5.69-15.24,7.82L4.37,45.2c-0.03,0.03-0.07,0.08-0.1,0.11
		c-0.54,0.72-0.32,1.39,0.05,1.74l5.53,5.53c0.48,0.48,1.15,0.52,1.71,0.12c0.03-0.03,0.07-0.06,0.1-0.09l3.79-3.79
		c0-0.01,0.01-0.01,0.01-0.01c0.01,0,0.01-0.01,0.01-0.01l38.72-38.76c1.37-1.37,2.38-1.32,3.86,0.16l2.86,2.85
		C62.39,14.54,62.43,15.55,61.07,16.92z"/><path fill="#ffdb7c" d="M3.71,44.67c-0.5,0.5-0.76,1.16-0.74,1.88C3,47.29,3.31,48,3.86,48.54l5.53,5.53c0.45,0.46,1,0.74,1.56,0.84
		c-0.88,0.16-1.87-0.12-2.59-0.84l-5.53-5.53C2.28,48,1.97,47.29,1.94,46.55c-0.02-0.72,0.23-1.38,0.74-1.88l12.55-13.26
		c6.46-6.74,8.83-12.77,7.06-17.91c-0.04-0.11-0.03-0.16-0.03-0.17c0.03-0.03,0.15-0.06,0.29,0.01c0.26,0.13,0.55,0.3,0.87,0.51
		c1.56,5.06-0.85,10.97-7.16,17.56L3.71,44.67z"/><path fill="#e1ba62" d="M33.4,23.92c-0.04,0.04-0.1,0.08-0.16,0.11c-0.11,0.05-0.22,0.07-0.33,0.05c-0.18-0.02-0.38-0.04-0.56-0.05
		h-0.12c-6.37-0.3-12.51,5.82-14.56,7.87L4.37,45.2c-0.03,0.03-0.07,0.08-0.1,0.11c-0.08,0.11-0.15,0.2-0.18,0.31
		c-0.11-0.35-0.07-0.78,0.27-1.23c0.03-0.03,0.07-0.08,0.1-0.11l13.3-13.3c2.06-2.06,8.19-8.17,14.56-7.87h0.12
		c0.17,0.01,0.36,0.03,0.53,0.05c0.16,0.19,0.29,0.39,0.42,0.57C33.47,23.85,33.45,23.87,33.4,23.92z"/></svg>