<svg xmlns="http://www.w3.org/2000/svg" width="100" height="100" viewBox="0 0 100 100"><path d="M39.813 67.339c.42 1.938-1.572 3.994-2.967 4.296-.621.135-1.076-.092-1.16-.479s.314-.799.213-1.266c-.303-1.396-6.412-5.998-17.896-14.798-.747 11.932-.817 18.36-.96 19.203-.23 1.188-1.431 2.015-2.826 2.315-1.241.27-2.186-.34-2.453-1.579-.404-1.861.35-16.394 2.54-43.415-.085-.387-.229-.681-.245-.758-.705-3.257.863-5.384 2.958-5.836 1.318-.285 3.348.088 3.649 1.483.286 1.319-.864 8.387-1.952 21.368 4.534-7.557 11.15-16.376 19.358-26.839 1.207-1.559 2.158-2.415 3.088-2.617.854-.185 1.42.181 1.637 1.188.168.775-.207 1.669-1.07 2.181-4.561 5.938-11.053 15.705-19.853 29.058 11.758 7.441 17.453 14.247 17.939 16.495m47.231-24.832c1.896 8.765-1.692 18.063-6.502 19.104-1.86.402-3.957-.28-4.912-1.697-.155 10.912.033 17.042.353 18.516.184.854.934.936 1 1.243.184.854-.533 1.658-1.312 1.826-1.858.4-3.112-.138-3.467-1.767-.279-1.293-.902-11.412-.082-29.789-.979 1.331-2.119 2.26-3.406 2.779-.521 8.476-3.274 13.373-7.772 14.346-3.006.652-5.584-.709-6.703-3.935-1.299 2.89-2.629 4.413-4.783 4.88-2.869.62-4.994-.949-5.666-4.052-.705-3.257-.508-7.604.461-13.251l-2.227-.169c-.963 7.19-1.99 11.065-3.619 11.419-.543.118-1.092-.171-1.26-.943-.117-.545 1.385-4.85 1.576-12.602-.973-.359-1.537-.724-1.688-1.422-.318-1.474 1.244-4.003 3.57-4.506 1.086-.234 2.09.278 2.291 1.209.102.465.113 1.273.064 2.177l2.729.222c.236-.781.662-1.442 1.242-2.136.432-.256.803-.417.957-.45 1.164-.251 2.933.422 3.152 1.429.168.775-.225 1.592-1.127 2.679-2.125 6.306-2.637 11.45-1.848 15.094.285 1.319.996 1.978 1.539 1.858 1.369-.296 2.834-2.713 4.081-7.238.168-2.734.784-6.002 2.01-9.259 1.014-2.817 2.297-4.395 3.848-4.73 1.008-.219 1.961.063 2.535.832.447-.178.818-.34 1.283-.44 2.096-.453 4.19 1.367 5.127 5.304 2.562-1.475 3.184-4.009 3.934-5.291.379-7.76.607-10.953 2.295-11.318.852-.184 2.072.201 2.273 1.132.234 1.085-.48 4.163-.707 9.489 1.649-4.01 3.031-6.258 4.658-6.611 2.482-.537 5.127 1.571 6.103 6.068M64.52 49.085c-.304-1.396-1.013-2.053-1.865-1.868-2.328.504-5.375 8.551-4.15 14.213.352 1.627 1.062 2.285 2.148 2.051 2.559-.555 5.09-8.734 3.867-14.396m18.639-6.143c-.353-1.629-.986-2.305-1.685-2.153-1.24.269-4.438 5.75-5.397 15.943.475 1.438 1.854 2.195 3.096 1.927 2.095-.452 3.088-2.615 3.832-6.673.658-3.714.625-6.873.154-9.044"/></svg>